<svg width="84" height="31" viewBox="0 0 84 31" fill="none" xmlns="http://www.w3.org/2000/svg">
<path d="M17.48 15.6C19.1067 15.9467 20.4133 16.76 21.4 18.04C22.3867 19.2933 22.88 20.7333 22.88 22.36C22.88 24.7067 22.0533 26.5733 20.4 27.96C18.7733 29.32 16.4933 30 13.56 30H0.48V1.92H13.12C15.9733 1.92 18.2 2.57333 19.8 3.88C21.4267 5.18667 22.24 6.96 22.24 9.2C22.24 10.8533 21.8 12.2267 20.92 13.32C20.0667 14.4133 18.92 15.1733 17.48 15.6ZM7.32 13.28H11.8C12.92 13.28 13.7733 13.04 14.36 12.56C14.9733 12.0533 15.28 11.32 15.28 10.36C15.28 9.4 14.9733 8.66667 14.36 8.16C13.7733 7.65333 12.92 7.4 11.8 7.4H7.32V13.28ZM12.36 24.48C13.5067 24.48 14.3867 24.2267 15 23.72C15.64 23.1867 15.96 22.4267 15.96 21.44C15.96 20.4533 15.6267 19.68 14.96 19.12C14.32 18.56 13.4267 18.28 12.28 18.28H7.32V24.48H12.36ZM58.3363 1.92V7.4H50.8963V30H44.0563V7.4H36.6163V1.92H58.3363ZM75.4891 7.44C78.0491 7.44 80.1024 8.29333 81.6491 10C83.1957 11.68 83.9691 14 83.9691 16.96V30H77.1691V17.88C77.1691 16.3867 76.7824 15.2267 76.0091 14.4C75.2357 13.5733 74.1957 13.16 72.8891 13.16C71.5824 13.16 70.5424 13.5733 69.7691 14.4C68.9957 15.2267 68.6091 16.3867 68.6091 17.88V30H61.7691V0.4H68.6091V10.68C69.3024 9.69333 70.2491 8.90666 71.4491 8.32C72.6491 7.73333 73.9957 7.44 75.4891 7.44Z" fill="#236E57"/>
<path d="M30.0472 30.32C28.8472 30.32 27.8605 29.9733 27.0872 29.28C26.3405 28.56 25.9672 27.68 25.9672 26.64C25.9672 25.5733 26.3405 24.68 27.0872 23.96C27.8605 23.24 28.8472 22.88 30.0472 22.88C31.2205 22.88 32.1805 23.24 32.9272 23.96C33.7005 24.68 34.0872 25.5733 34.0872 26.64C34.0872 27.68 33.7005 28.56 32.9272 29.28C32.1805 29.9733 31.2205 30.32 30.0472 30.32Z" fill="#F05830"/>
</svg>
