<svg width="206" height="70" viewBox="0 0 206 70" fill="none" xmlns="http://www.w3.org/2000/svg">
<path fill-rule="evenodd" clip-rule="evenodd" d="M41.8344 14.4325C41.6444 14.4325 41.4306 14.4087 41.2406 14.3375C38.9135 13.5207 36.4631 13.1109 33.9969 13.1262C31.4556 13.1262 29.0331 13.5537 26.7531 14.3375C25.8031 14.6462 24.8056 14.1712 24.4731 13.245C24.1406 12.3187 24.6394 11.2975 25.5656 10.965C28.2256 10.0387 31.0519 9.56372 33.9969 9.56372C36.9419 9.56372 39.7919 10.0387 42.4281 10.965C42.6858 10.9679 42.9397 11.0267 43.1724 11.1372C43.4052 11.2478 43.6111 11.4076 43.7761 11.6055C43.9411 11.8034 44.0612 12.0347 44.1281 12.2836C44.195 12.5324 44.2072 12.7928 44.1637 13.0467C44.1202 13.3007 44.0221 13.5422 43.8762 13.7546C43.7303 13.967 43.5401 14.1452 43.3187 14.2769C43.0972 14.4087 42.8499 14.4908 42.5936 14.5177C42.3373 14.5445 42.0783 14.5154 41.8344 14.4325ZM17.2088 53.5749C16.7575 53.5749 16.3063 53.4086 15.95 53.0524C5.99876 43.1011 5.99876 26.9036 15.95 16.9524C16.6388 16.2636 17.7788 16.2636 18.4675 16.9524C19.1563 17.6411 19.1563 18.7811 18.4675 19.4699C9.89376 28.0436 9.89376 41.9849 18.4675 50.5349C19.1563 51.2236 19.1563 52.3636 18.4675 53.0524C18.1113 53.4086 17.66 53.5749 17.2088 53.5749ZM50.7963 53.5749C50.3451 53.5749 49.8938 53.4086 49.5375 53.0524C49.2063 52.7172 49.0205 52.2649 49.0205 51.7936C49.0205 51.3223 49.2063 50.8701 49.5375 50.5349C58.1113 41.9611 58.1113 28.0199 49.5375 19.4699C49.2063 19.1347 49.0205 18.6824 49.0205 18.2111C49.0205 17.7398 49.2063 17.2876 49.5375 16.9524C50.2263 16.2636 51.3663 16.2636 52.055 16.9524C62.0063 26.9036 62.0063 43.1011 52.055 53.0524C51.6988 53.4086 51.2476 53.5749 50.7963 53.5749ZM25.5667 59.016C28.2029 59.9423 31.0292 60.4173 33.9979 60.441C36.9667 60.441 39.7929 59.9423 42.4529 59.016C43.3792 58.6835 43.8779 57.6623 43.5454 56.736C43.2129 55.8098 42.1917 55.3348 41.2654 55.6435C39.0092 56.4273 36.5629 56.8548 34.0217 56.8548C31.4567 56.8548 29.0342 56.4273 26.7542 55.6435C25.8042 55.311 24.8067 55.8098 24.4742 56.736C24.3175 57.1833 24.3446 57.6744 24.5494 58.1017C24.7541 58.5291 25.12 58.8579 25.5667 59.016ZM26.2522 31.0337V35V39.0137C26.2522 43.9537 29.7434 45.9725 34.0184 43.5025L37.4622 41.5075L40.9059 39.5125C45.1809 37.0425 45.1809 33.005 40.9059 30.535L37.4622 28.54L34.0184 26.545C29.7434 24.075 26.2522 26.0937 26.2522 31.0337Z" fill="#236E57"/>
<path d="M97.004 28.864L93.71 41.5H89.984L87.968 33.184L85.88 41.5H82.154L78.95 28.864H82.244L84.062 38.062L86.312 28.864H89.696L91.856 38.062L93.692 28.864H97.004ZM98.2236 36.46C98.2236 35.428 98.4156 34.522 98.7996 33.742C99.1956 32.962 99.7296 32.362 100.402 31.942C101.074 31.522 101.824 31.312 102.652 31.312C103.36 31.312 103.978 31.456 104.506 31.744C105.046 32.032 105.46 32.41 105.748 32.878V31.456H108.826V41.5H105.748V40.078C105.448 40.546 105.028 40.924 104.488 41.212C103.96 41.5 103.342 41.644 102.634 41.644C101.818 41.644 101.074 41.434 100.402 41.014C99.7296 40.582 99.1956 39.976 98.7996 39.196C98.4156 38.404 98.2236 37.492 98.2236 36.46ZM105.748 36.478C105.748 35.71 105.532 35.104 105.1 34.66C104.68 34.216 104.164 33.994 103.552 33.994C102.94 33.994 102.418 34.216 101.986 34.66C101.566 35.092 101.356 35.692 101.356 36.46C101.356 37.228 101.566 37.84 101.986 38.296C102.418 38.74 102.94 38.962 103.552 38.962C104.164 38.962 104.68 38.74 105.1 38.296C105.532 37.852 105.748 37.246 105.748 36.478ZM116.938 38.89V41.5H115.372C114.256 41.5 113.386 41.23 112.762 40.69C112.138 40.138 111.826 39.244 111.826 38.008V34.012H110.602V31.456H111.826V29.008H114.904V31.456H116.92V34.012H114.904V38.044C114.904 38.344 114.976 38.56 115.12 38.692C115.264 38.824 115.504 38.89 115.84 38.89H116.938ZM118.329 36.478C118.329 35.434 118.539 34.522 118.959 33.742C119.391 32.962 119.985 32.362 120.741 31.942C121.509 31.522 122.385 31.312 123.369 31.312C124.629 31.312 125.679 31.642 126.519 32.302C127.371 32.962 127.929 33.892 128.193 35.092H124.917C124.641 34.324 124.107 33.94 123.315 33.94C122.751 33.94 122.301 34.162 121.965 34.606C121.629 35.038 121.461 35.662 121.461 36.478C121.461 37.294 121.629 37.924 121.965 38.368C122.301 38.8 122.751 39.016 123.315 39.016C124.107 39.016 124.641 38.632 124.917 37.864H128.193C127.929 39.04 127.371 39.964 126.519 40.636C125.667 41.308 124.617 41.644 123.369 41.644C122.385 41.644 121.509 41.434 120.741 41.014C119.985 40.594 119.391 39.994 118.959 39.214C118.539 38.434 118.329 37.522 118.329 36.478ZM136.301 31.348C137.453 31.348 138.377 31.732 139.073 32.5C139.769 33.256 140.117 34.3 140.117 35.632V41.5H137.057V36.046C137.057 35.374 136.883 34.852 136.535 34.48C136.187 34.108 135.719 33.922 135.131 33.922C134.543 33.922 134.075 34.108 133.727 34.48C133.379 34.852 133.205 35.374 133.205 36.046V41.5H130.127V28.18H133.205V32.806C133.517 32.362 133.943 32.008 134.483 31.744C135.023 31.48 135.629 31.348 136.301 31.348ZM158.509 28.864L154.027 41.5H150.175L145.693 28.864H148.969L152.101 38.404L155.251 28.864H158.509ZM161.631 30.412C161.091 30.412 160.647 30.256 160.299 29.944C159.963 29.62 159.795 29.224 159.795 28.756C159.795 28.276 159.963 27.88 160.299 27.568C160.647 27.244 161.091 27.082 161.631 27.082C162.159 27.082 162.591 27.244 162.927 27.568C163.275 27.88 163.449 28.276 163.449 28.756C163.449 29.224 163.275 29.62 162.927 29.944C162.591 30.256 162.159 30.412 161.631 30.412ZM163.161 31.456V41.5H160.083V31.456H163.161ZM165.068 36.46C165.068 35.428 165.26 34.522 165.644 33.742C166.04 32.962 166.574 32.362 167.246 31.942C167.918 31.522 168.668 31.312 169.496 31.312C170.156 31.312 170.756 31.45 171.296 31.726C171.848 32.002 172.28 32.374 172.592 32.842V28.18H175.67V41.5H172.592V40.06C172.304 40.54 171.89 40.924 171.35 41.212C170.822 41.5 170.204 41.644 169.496 41.644C168.668 41.644 167.918 41.434 167.246 41.014C166.574 40.582 166.04 39.976 165.644 39.196C165.26 38.404 165.068 37.492 165.068 36.46ZM172.592 36.478C172.592 35.71 172.376 35.104 171.944 34.66C171.524 34.216 171.008 33.994 170.396 33.994C169.784 33.994 169.262 34.216 168.83 34.66C168.41 35.092 168.2 35.692 168.2 36.46C168.2 37.228 168.41 37.84 168.83 38.296C169.262 38.74 169.784 38.962 170.396 38.962C171.008 38.962 171.524 38.74 171.944 38.296C172.376 37.852 172.592 37.246 172.592 36.478ZM187.653 36.316C187.653 36.604 187.635 36.904 187.599 37.216H180.633C180.681 37.84 180.879 38.32 181.227 38.656C181.587 38.98 182.025 39.142 182.541 39.142C183.309 39.142 183.843 38.818 184.143 38.17H187.419C187.251 38.83 186.945 39.424 186.501 39.952C186.069 40.48 185.523 40.894 184.863 41.194C184.203 41.494 183.465 41.644 182.649 41.644C181.665 41.644 180.789 41.434 180.021 41.014C179.253 40.594 178.653 39.994 178.221 39.214C177.789 38.434 177.573 37.522 177.573 36.478C177.573 35.434 177.783 34.522 178.203 33.742C178.635 32.962 179.235 32.362 180.003 31.942C180.771 31.522 181.653 31.312 182.649 31.312C183.621 31.312 184.485 31.516 185.241 31.924C185.997 32.332 186.585 32.914 187.005 33.67C187.437 34.426 187.653 35.308 187.653 36.316ZM184.503 35.506C184.503 34.978 184.323 34.558 183.963 34.246C183.603 33.934 183.153 33.778 182.613 33.778C182.097 33.778 181.659 33.928 181.299 34.228C180.951 34.528 180.735 34.954 180.651 35.506H184.503ZM194.136 41.644C193.152 41.644 192.264 41.434 191.472 41.014C190.692 40.594 190.074 39.994 189.618 39.214C189.174 38.434 188.952 37.522 188.952 36.478C188.952 35.446 189.18 34.54 189.636 33.76C190.092 32.968 190.716 32.362 191.508 31.942C192.3 31.522 193.188 31.312 194.172 31.312C195.156 31.312 196.044 31.522 196.836 31.942C197.628 32.362 198.252 32.968 198.708 33.76C199.164 34.54 199.392 35.446 199.392 36.478C199.392 37.51 199.158 38.422 198.69 39.214C198.234 39.994 197.604 40.594 196.8 41.014C196.008 41.434 195.12 41.644 194.136 41.644ZM194.136 38.98C194.724 38.98 195.222 38.764 195.63 38.332C196.05 37.9 196.26 37.282 196.26 36.478C196.26 35.674 196.056 35.056 195.648 34.624C195.252 34.192 194.76 33.976 194.172 33.976C193.572 33.976 193.074 34.192 192.678 34.624C192.282 35.044 192.084 35.662 192.084 36.478C192.084 37.282 192.276 37.9 192.66 38.332C193.056 38.764 193.548 38.98 194.136 38.98Z" fill="#0D0D0D"/>
</svg>
